<svg fill="none" height="25" viewBox="0 0 35 25" width="35" xmlns="http://www.w3.org/2000/svg">
    <g clip-path="url(#clip0_1679_69)">
        <path
            d="M0 21.2502C0 22.2816 0.409721 23.2708 1.13903 24.0001C1.86834 24.7294 2.85749 25.1391 3.88889 25.1391H31.1111C32.1425 25.1391 33.1317 24.7294 33.861 24.0001C34.5903 23.2708 35 22.2816 35 21.2502V17.3613H0V21.2502Z"
            fill="#DA0001" />
        <path d="M0 7.63867H35V17.3609H0V7.63867Z" fill="#EEEEEE" />
        <path
            d="M35 7.63911V3.75022C35 2.71882 34.5903 1.72967 33.861 1.00036C33.1317 0.271049 32.1425 -0.138672 31.1111 -0.138672H3.88889C2.85749 -0.138672 1.86834 0.271049 1.13903 1.00036C0.409721 1.72967 0 2.71882 0 3.75022L0 7.63911H35Z"
            fill="#239F40" />
        <path d="M0 17.3613H35V18.3336H0V17.3613Z" fill="#E96667" />
        <path
            d="M18.9243 9.55296C19.8547 10.0293 21.8779 12.4239 19.7001 15.1248C21.0525 14.8253 22.7743 10.8392 18.9243 9.55296ZM16.0689 9.55296C12.2198 10.8392 13.9407 14.8253 15.293 15.1248C13.1152 12.4239 15.1384 10.0293 16.0689 9.55296ZM17.4815 9.41393C17.5204 9.60546 18.5519 9.83782 18.4284 8.85685C18.2651 9.25351 17.7926 9.24185 17.4873 9.0581C17.0673 9.2924 16.6755 9.23504 16.5268 8.8374C16.3829 9.57046 17.0975 9.78532 17.4815 9.41393Z"
            fill="#BE1931" />
        <path
            d="M19.9674 12.4066C19.9528 11.1932 19.3092 10.1199 18.6753 9.68532C19.0934 10.1977 20.3787 13.0259 17.9121 14.8877L17.9578 9.93227L17.496 9.52588L17.0342 9.91282L17.112 14.9159L17.0945 14.9013C14.6027 13.0405 15.8958 10.1987 16.3148 9.68532C15.6809 10.1199 15.0363 11.1932 15.0227 12.4066C15.0101 13.4478 15.4865 14.5873 16.8058 15.5225C16.273 15.6598 15.7244 15.7255 15.1744 15.718C15.6255 15.9639 16.4771 15.9046 17.1256 15.8453L17.1266 15.9114L17.5135 16.3363L17.9024 15.8939V15.8434C18.5558 15.9037 19.4259 15.9688 19.8848 15.7189C19.3166 15.7283 18.7499 15.6586 18.2009 15.5119C19.5076 14.5775 19.9801 13.4439 19.9674 12.4066Z"
            fill="#BE1931" />
        <path d="M0 6.6665H35V7.63873H0V6.6665Z" fill="#7BC58C" />
    </g>
    <defs>
        <clipPath id="clip0_1679_69">
            <rect fill="white" height="25" width="35" />
        </clipPath>
    </defs>
</svg>
