<svg fill="none" height="38" viewBox="0 0 38 38" width="38" xmlns="http://www.w3.org/2000/svg">
    <g filter="url(#filter0_d_73_13)">
        <path
            d="M19 0.9375C12.8594 0.9375 7.65625 4.82813 5.73438 10.3125H32.2656C30.3437 4.82813 25.1406 0.9375 19 0.9375Z"
            fill="#83BF4F" />
        <path
            d="M19 29.0625C25.1406 29.0625 30.3437 25.1719 32.2656 19.6875H5.73438C7.65625 25.1719 12.8594 29.0625 19 29.0625Z"
            fill="#ED4C5C" />
        <path
            d="M5.73438 10.3125C5.21875 11.7656 4.9375 13.3594 4.9375 15C4.9375 16.6406 5.21875 18.2344 5.73438 19.6875H32.2656C32.7812 18.2344 33.0625 16.6406 33.0625 15C33.0625 13.3594 32.7812 11.7656 32.2656 10.3125H5.73438Z"
            fill="#F9F9F9" />
        <path
            d="M31.8438 20.7656L31.7031 21.0469H31.8438V20.7656ZM6.29688 21.0469L6.15625 20.7656V21.0469H6.29688ZM6.625 8.8125H6.39062C6.34375 8.85938 6.29688 8.90625 6.29688 8.95313H6.625V8.8125Z"
            fill="white" />
        <path
            d="M6.625 9.84375V9.70312H6.15625V9.42187H6.85937V9.84375H7.89062V8.76562H7.75V9.65625H7.46875V8.76562H7.32812V9.65625H7.04687V8.76562H6.90625V9.23438H6.15625C6.10937 9.32813 6.0625 9.46875 6.01562 9.5625V9.84375H6.625V9.84375ZM6.625 21.0469H6.29687C6.29687 21.0938 6.34375 21.1406 6.39062 21.1875H6.67187L6.625 21.0469ZM6.15625 20.7656H6.85937V21.1875H7.89062V20.1094H7.75V21H7.46875V20.1094H7.32812V21H7.04687V20.1094H6.90625V20.5781H6.10937C6.10937 20.6719 6.15625 20.7187 6.15625 20.7656Z"
            fill="white" />
        <path
            d="M6.625 20.1562H5.92188C5.92188 20.2031 5.96875 20.25 5.96875 20.2969H6.625V20.1562ZM10.375 9.84375H11.0312V9.70312H10.5625V9.42187H11.2656V9.84375H12.2969V8.76562H12.1562V9.70312H11.875V8.76562H11.6875V9.70312H11.4063V8.76562H11.2656V9.23438H10.375V9.84375ZM10.0937 9.84375V9.23438H9.48437V9.42187H9.95313V9.70312H9.25V9.23438H8.21875V9.89062H8.35938V9.42187H9.0625V9.84375H10.0937Z"
            fill="white" />
        <path
            d="M8.59375 9.70313H8.82813V9.84375H8.59375V9.70313ZM8.17188 8.8125H11.0313V8.95313H8.17188V8.8125ZM9.48438 20.7656H9.95313V21.0469H9.25V20.5781H8.21875V21.2344H8.35938V20.7656H9.0625V21.1875H10.0938V20.5781H9.48438V20.7656Z"
            fill="white" />
        <path
            d="M8.59375 21.0469H8.82813V21.1875H8.59375V21.0469ZM8.17188 20.1562H11.0313V20.2969H8.17188V20.1562Z"
            fill="white" />
        <path
            d="M12.1562 21.0469H11.875V20.1094H11.6875V21.0469H11.4062V20.1094H11.2656V20.5781H10.375V21.1875H11.0312V21.0469H10.5625V20.7656H11.2656V21.1875H12.2969V20.1094H12.1562V21.0469ZM14.7812 9.84375H15.3906V9.70312H14.9219V9.42187H15.625V9.84375H16.6562V8.76562H16.5156V9.70312H16.2344V8.76562H16.0937V9.70312H15.8125V8.76562H15.625V9.23438H14.7812V9.84375ZM14.5 9.84375V9.23438H13.8437V9.42187H14.3125V9.70312H13.6094V9.23438H12.5781V9.89062H12.7188V9.42187H13.4688V9.84375H14.5Z"
            fill="white" />
        <path
            d="M12.5312 8.8125H15.3906V8.95313H12.5312V8.8125ZM13 9.70313H13.2344V9.84375H13V9.70313ZM16.5156 21.0469H16.2344V20.1094H16.0937V21.0469H15.8125V20.1094H15.625V20.5781H14.7812V21.1875H15.3906V21.0469H14.9219V20.7656H15.625V21.1875H16.6562V20.1094H16.5156V21.0469ZM13 21.0469H13.2344V21.1875H13V21.0469Z"
            fill="white" />
        <path
            d="M12.5312 20.1563H15.3906V20.2969H12.5312V20.1563ZM13.8437 20.7656H14.3125V21.0469H13.6094V20.5781H12.5781V21.2344H12.7187V20.7656H13.4688V21.1875H14.5V20.5781H13.8437V20.7656ZM18.8594 9.84375V9.23438H18.25V9.42188H18.7187V9.70313H17.9687V9.23438H16.9375V9.89063H17.125V9.42188H17.8281V9.84375H18.8594ZM16.9375 8.8125H19.7969V8.95313H16.9375V8.8125Z"
            fill="white" />
        <path
            d="M17.3594 9.70312H17.5937V9.84375H17.3594V9.70312ZM19.1406 9.84375H19.75V9.70312H19.2812V9.42187H20.0313V9.84375H21.0625V8.76562H20.875V9.70312H20.5938V8.76562H20.4531V9.70312H20.1719V8.76562H20.0313V9.23438H19.1406V9.84375ZM16.9375 20.1562H19.7969V20.2969H16.9375V20.1562ZM18.25 20.7656H18.7187V21.0469H17.9687V20.5781H16.9375V21.2344H17.125V20.7656H17.8281V21.1875H18.8594V20.5781H18.25V20.7656Z"
            fill="white" />
        <path
            d="M17.3594 21.0469H17.5938V21.1875H17.3594V21.0469ZM20.875 21.0469H20.5938V20.1094H20.4531V21.0469H20.1719V20.1094H20.0313V20.5781H19.1406V21.1875H19.75V21.0469H19.2812V20.7656H20.0313V21.1875H21.0625V20.1094H20.875V21.0469ZM21.7187 9.70313H21.9531V9.84375H21.7187V9.70313ZM21.2969 8.8125H24.1562V8.95313H21.2969V8.8125Z"
            fill="white" />
        <path
            d="M23.5 9.84375H24.1562V9.70312H23.6875V9.42187H24.3906V9.84375H25.4219V8.76562H25.2812V9.70312H25V8.76562H24.8125V9.70312H24.5312V8.76562H24.3906V9.23438H23.5V9.84375ZM23.2187 9.84375V9.23438H22.6094V9.42187H23.0781V9.70312H22.375V9.23438H21.3437V9.89062H21.4844V9.42187H22.1875V9.84375H23.2187ZM21.2969 20.1562H24.1562V20.2969H21.2969V20.1562Z"
            fill="white" />
        <path
            d="M25.2813 21.0469H25V20.1094H24.8125V21.0469H24.5312V20.1094H24.3906V20.5781H23.5V21.1875H24.1562V21.0469H23.6875V20.7656H24.3906V21.1875H25.4219V20.1094H25.2813V21.0469ZM22.6094 20.7656H23.0781V21.0469H22.375V20.5781H21.3438V21.2344H21.4844V20.7656H22.1875V21.1875H23.2188V20.5781H22.6094V20.7656Z"
            fill="white" />
        <path
            d="M21.7188 21.0469H21.9531V21.1875H21.7188V21.0469ZM27.625 9.84375V9.23438H26.9688V9.42187H27.4375V9.70312H26.7344V9.23438H25.7031V9.89062H25.8437V9.42187H26.5938V9.84375H27.625Z"
            fill="white" />
        <path
            d="M26.125 9.70313H26.3594V9.84375H26.125V9.70313ZM25.6562 8.8125H28.5156V8.95313H25.6562V8.8125Z"
            fill="white" />
        <path
            d="M27.9062 9.84375H28.5156V9.70312H28.0469V9.42187H28.75V9.84375H29.7812V8.76562H29.6406V9.70312H29.3594V8.76562H29.2187V9.70312H28.9375V8.76562H28.75V9.23438H27.9062V9.84375ZM26.125 21.0469H26.3594V21.1875H26.125V21.0469Z"
            fill="white" />
        <path
            d="M26.9687 20.7656H27.4375V21.0469H26.7344V20.5781H25.7031V21.2344H25.8437V20.7656H26.5938V21.1875H27.625V20.5781H26.9687V20.7656ZM25.6562 20.1562H28.5156V20.2969H25.6562V20.1562Z"
            fill="white" />
        <path
            d="M29.6406 21.0469H29.3594V20.1094H29.2187V21.0469H28.9375V20.1094H28.75V20.5781H27.9062V21.1875H28.5156V21.0469H28.0469V20.7656H28.75V21.1875H29.7812V20.1094H29.6406V21.0469ZM30.0625 8.95313H31.7031C31.6562 8.90625 31.6563 8.85938 31.6094 8.8125H30.0156C30.0625 8.8125 30.0625 8.95313 30.0625 8.95313ZM31.375 9.42188H31.8438V9.70313H31.1406V9.28125H30.1094V9.89063H30.25V9.42188H30.9531V9.84375H31.9844V9.60938C31.9375 9.51563 31.8906 9.375 31.8438 9.28125H31.375V9.42188"
            fill="white" />
        <path
            d="M30.4844 9.70312H30.7188V9.84375H30.4844V9.70312ZM30.4844 21.0469H30.7188V21.1875H30.4844V21.0469ZM30.0625 20.1562V20.2969H32.0313C32.0313 20.25 32.0781 20.2031 32.0781 20.1562H30.0625V20.1562ZM31.375 20.7656H31.8438C31.8906 20.7187 31.8906 20.6719 31.9375 20.5781H31.375V20.7656Z"
            fill="white" />
        <path
            d="M31.0938 21.0469V20.625H30.0625V21.2344H30.25V20.7656H30.9531V21.1875H31.6094C31.6563 21.1406 31.6562 21.0938 31.7031 21.0469H31.0938Z"
            fill="white" />
        <path
            d="M21.1094 15.8906C21.5313 14.6719 21.1094 13.3125 20.1719 12.4687C21.25 14.0625 20.8281 16.1719 19.3281 17.2969L19.4219 14.6719V12.6094C19.2344 12.5156 19.0938 12.4219 19 12.2812C18.9063 12.4219 18.7656 12.5625 18.5781 12.6094V14.6719L18.6719 17.2969C17.125 16.1719 16.75 14.0625 17.8281 12.4687C16.8438 13.3125 16.4688 14.6719 16.8906 15.8906C17.1719 16.7344 17.7344 17.3437 18.4375 17.7187C18.0156 17.8594 17.5469 17.9531 17.0781 17.9531C17.6406 18.1406 18.2031 18.1406 18.7188 18.0469V18.1406L19 18.5156L19.2813 18.1406V18.0469C19.7969 18.1406 20.3594 18.1406 20.9219 17.9531C20.4531 17.9531 19.9844 17.9062 19.5625 17.7187C20.2656 17.3437 20.8281 16.6875 21.1094 15.8906"
            fill="#ED4C5C" />
        <path
            d="M22.1406 13.6406C21.7656 13.0312 21.1562 12.5625 20.4531 12.375C22 13.5469 22.3281 15.75 21.1562 17.2969C22.4687 16.5938 22.8906 14.9531 22.1406 13.6406V13.6406ZM17.5 12.375C16.7969 12.5625 16.1875 12.9844 15.8125 13.6406C15.0625 14.9062 15.5312 16.5469 16.7969 17.2969C15.6719 15.75 15.9531 13.5469 17.5 12.375ZM18.2969 12.1875C18.5312 12.3281 18.8594 12.2812 19 12.0469C19.1406 12.2812 19.4687 12.3281 19.7031 12.1875C19.8906 12.0469 19.9844 11.8125 19.8906 11.5781C19.8437 11.8594 19.6094 12 19.3281 11.9531C19.1875 11.9062 19.0937 11.8594 19 11.7187C18.9531 11.8594 18.8125 11.9062 18.6719 11.9531C18.3906 12 18.1562 11.8125 18.1094 11.5781C18.0156 11.8125 18.1094 12.0469 18.2969 12.1875"
            fill="#ED4C5C" />
    </g>
    <defs>
        <filter color-interpolation-filters="sRGB" filterUnits="userSpaceOnUse" height="38"
            id="filter0_d_73_13" width="38" x="0" y="0">
            <feFlood flood-opacity="0" result="BackgroundImageFix" />
            <feColorMatrix in="SourceAlpha" result="hardAlpha" type="matrix"
                values="0 0 0 0 0 0 0 0 0 0 0 0 0 0 0 0 0 0 127 0" />
            <feOffset dy="4" />
            <feGaussianBlur stdDeviation="2" />
            <feComposite in2="hardAlpha" operator="out" />
            <feColorMatrix type="matrix" values="0 0 0 0 0 0 0 0 0 0 0 0 0 0 0 0 0 0 0.25 0" />
            <feBlend in2="BackgroundImageFix" mode="normal" result="effect1_dropShadow_73_13" />
            <feBlend in="SourceGraphic" in2="effect1_dropShadow_73_13" mode="normal"
                result="shape" />
        </filter>
    </defs>
</svg>
