<svg fill="none" height="30" viewBox="0 0 30 30" width="30" xmlns="http://www.w3.org/2000/svg">
    <path
        d="M25.95 3.75C26.686 3.75 27.3918 4.04237 27.9122 4.56278C28.4326 5.08319 28.725 5.78902 28.725 6.525V25.95C28.725 26.686 28.4326 27.3918 27.9122 27.9122C27.3918 28.4326 26.686 28.725 25.95 28.725H6.525C5.78902 28.725 5.08319 28.4326 4.56278 27.9122C4.04237 27.3918 3.75 26.686 3.75 25.95V6.525C3.75 5.78902 4.04237 5.08319 4.56278 4.56278C5.08319 4.04237 5.78902 3.75 6.525 3.75H25.95ZM25.2562 25.2562V17.9025C25.2562 16.7029 24.7797 15.5524 23.9314 14.7041C23.0831 13.8558 21.9326 13.3792 20.733 13.3792C19.5536 13.3792 18.18 14.1007 17.514 15.183V13.6429H13.6429V25.2562H17.514V18.4159C17.514 17.3475 18.3742 16.4734 19.4426 16.4734C19.9578 16.4734 20.4519 16.678 20.8162 17.0423C21.1805 17.4066 21.3851 17.9007 21.3851 18.4159V25.2562H25.2562ZM9.1335 11.4645C9.75172 11.4645 10.3446 11.2189 10.7818 10.7818C11.2189 10.3446 11.4645 9.75172 11.4645 9.1335C11.4645 7.84312 10.4239 6.78863 9.1335 6.78863C8.5116 6.78863 7.91517 7.03567 7.47542 7.47542C7.03567 7.91517 6.78863 8.5116 6.78863 9.1335C6.78863 10.4239 7.84312 11.4645 9.1335 11.4645ZM11.0621 25.2562V13.6429H7.21875V25.2562H11.0621Z"
        fill="#64CFB3" />
</svg>
