<svg fill="none" height="35" viewBox="0 0 30 35" width="30" xmlns="http://www.w3.org/2000/svg">
    <path clip-rule="evenodd"
        d="M11.7862 11.2113H16.4287V13.5238C17.0975 12.1938 18.8125 10.9988 21.3888 10.9988C26.3275 10.9988 27.5 13.6463 27.5 18.5038V27.5H22.5V19.61C22.5 16.8437 21.8313 15.2838 20.1288 15.2838C17.7675 15.2838 16.7862 16.965 16.7862 19.6088V27.5H11.7862V11.2113V11.2113ZM3.2125 27.2875H8.2125V10.9988H3.2125V27.2875V27.2875ZM8.92875 5.6875C8.92894 6.10659 8.84582 6.52154 8.68423 6.90823C8.52265 7.29492 8.28581 7.64564 7.9875 7.94C7.383 8.54078 6.56476 8.87707 5.7125 8.875C4.86174 8.87443 4.04539 8.539 3.44 7.94125C3.14276 7.64589 2.90673 7.29478 2.74543 6.90804C2.58413 6.5213 2.50072 6.10653 2.5 5.6875C2.5 4.84125 2.8375 4.03125 3.44125 3.43375C4.04611 2.8352 4.8628 2.49963 5.71375 2.5C6.56625 2.5 7.38375 2.83625 7.9875 3.43375C8.59 4.03125 8.92875 4.84125 8.92875 5.6875Z"
        fill="white" fill-rule="evenodd" />
</svg>
