<svg fill="none" height="30" viewBox="0 0 30 30" width="30" xmlns="http://www.w3.org/2000/svg">
    <path
        d="M23.8083 20.3132C23.8083 20.194 23.7975 20.1073 23.7758 20.0531C23.7541 19.9989 23.6566 19.9095 23.4832 19.7848C23.3098 19.6602 23.0903 19.5247 22.8248 19.3784C22.5593 19.2321 22.3019 19.0885 22.0526 18.9476C21.8034 18.8067 21.5568 18.6713 21.313 18.5412C21.0691 18.4112 20.9147 18.3299 20.8496 18.2974C20.7955 18.2649 20.6925 18.1944 20.5408 18.086C20.389 17.9777 20.2536 17.8964 20.1344 17.8422C20.0151 17.788 19.9014 17.7609 19.793 17.7609C19.6304 17.7609 19.4326 17.872 19.1996 18.0942C18.9666 18.3163 18.7526 18.5602 18.5575 18.8257C18.3624 19.0912 18.1538 19.3351 17.9316 19.5573C17.7094 19.7794 17.5279 19.8905 17.387 19.8905C17.3111 19.8905 17.2217 19.8715 17.1188 19.8336C17.0158 19.7957 16.9318 19.7605 16.8668 19.7279C16.8018 19.6954 16.7097 19.644 16.5904 19.5735C16.4712 19.5031 16.3954 19.457 16.3629 19.4353C15.2899 18.8393 14.3687 18.1538 13.5992 17.3789C12.8298 16.604 12.1416 15.6801 11.5347 14.6071C11.513 14.5746 11.4669 14.4988 11.3965 14.3796C11.326 14.2603 11.2746 14.1682 11.2421 14.1032C11.2095 14.0382 11.1743 13.9542 11.1364 13.8512C11.0985 13.7483 11.0795 13.6589 11.0795 13.583C11.0795 13.4421 11.1906 13.2606 11.4127 13.0384C11.6349 12.8162 11.8788 12.6076 12.1443 12.4125C12.4098 12.2174 12.6537 12.0034 12.8758 11.7704C13.098 11.5374 13.2091 11.3396 13.2091 11.177C13.2091 11.0686 13.182 10.9549 13.1278 10.8356C13.0736 10.7164 12.9923 10.581 12.884 10.4292C12.7756 10.2775 12.7051 10.1745 12.6726 10.1204C12.6401 10.0553 12.5588 9.90089 12.4288 9.65704C12.2987 9.41319 12.1633 9.16664 12.0224 8.91737C11.8815 8.6681 11.7379 8.41071 11.5916 8.14519C11.4453 7.87966 11.3098 7.6602 11.1852 7.4868C11.0605 7.31339 10.9711 7.21585 10.9169 7.19418C10.8627 7.1725 10.776 7.16167 10.6568 7.16167C10.1366 7.16167 9.58931 7.28088 9.01491 7.51931C8.51638 7.7469 8.08287 8.25898 7.71439 9.05555C7.34591 9.85212 7.16167 10.5593 7.16167 11.177C7.16167 11.3504 7.17521 11.5347 7.20231 11.7297C7.2294 11.9248 7.2565 12.0901 7.28359 12.2256C7.31068 12.361 7.35945 12.5399 7.4299 12.762C7.50034 12.9842 7.55453 13.1441 7.59246 13.2416C7.6304 13.3391 7.69813 13.518 7.79567 13.7781C7.89321 14.0382 7.95282 14.2007 7.97449 14.2658C8.62475 16.0431 9.79793 17.7799 11.494 19.476C13.1901 21.1721 14.9269 22.3452 16.7042 22.9955C16.7693 23.0172 16.9318 23.0768 17.1919 23.1743C17.452 23.2719 17.6309 23.3396 17.7284 23.3775C17.8259 23.4155 17.9858 23.4697 18.208 23.5401C18.4301 23.6105 18.609 23.6593 18.7444 23.6864C18.8799 23.7135 19.0452 23.7406 19.2403 23.7677C19.4353 23.7948 19.6196 23.8083 19.793 23.8083C20.4107 23.8083 21.1179 23.6241 21.9144 23.2556C22.711 22.8871 23.2231 22.4536 23.4507 21.9551C23.6891 21.3807 23.8083 20.8334 23.8083 20.3132ZM27.97 7.68187V23.2881C27.97 24.5778 27.5121 25.6805 26.5963 26.5963C25.6805 27.5121 24.5778 27.97 23.2881 27.97H7.68187C6.39219 27.97 5.28946 27.5121 4.37368 26.5963C3.45789 25.6805 3 24.5778 3 23.2881V7.68187C3 6.39219 3.45789 5.28946 4.37368 4.37368C5.28946 3.45789 6.39219 3 7.68187 3H23.2881C24.5778 3 25.6805 3.45789 26.5963 4.37368C27.5121 5.28946 27.97 6.39219 27.97 7.68187Z"
        fill="#64CFB3" />
</svg>
