<svg fill="none" height="25" viewBox="0 0 35 25" width="35" xmlns="http://www.w3.org/2000/svg">
    <g clip-path="url(#clip0_1679_78)">
        <path
            d="M34.4604 1.80577C33.7867 0.647856 32.5471 -0.138672 31.1111 -0.138672H17.5V1.80577H34.4604ZM0 19.3058H35V21.2502H0V19.3058ZM17.5 11.528H35V13.4724H17.5V11.528ZM17.5 7.63911H35V9.58355H17.5V7.63911ZM0 15.4169H35V17.3613H0V15.4169ZM3.88889 25.1391H31.1111C32.5471 25.1391 33.7867 24.3526 34.4604 23.1947H0.539583C1.21333 24.3526 2.45292 25.1391 3.88889 25.1391ZM17.5 3.75022H35V5.69466H17.5V3.75022Z"
            fill="#B22334" />
        <path
            d="M0.0661111 21.9102C0.0826389 22.0007 0.101111 22.0911 0.123472 22.1796C0.14875 22.2777 0.179861 22.3721 0.212917 22.4673C0.299444 22.7191 0.404444 22.9622 0.536667 23.1897L0.539583 23.1946H34.4604L34.4624 23.1907C34.5929 22.9615 34.701 22.7202 34.7851 22.4702C34.8492 22.2878 34.8986 22.1005 34.9329 21.9102C34.9728 21.6964 35 21.4766 35 21.2501H0C0 21.4766 0.0272222 21.6954 0.0661111 21.9102ZM0 17.3612H35V19.3057H0V17.3612ZM0 13.4723V15.4168H35V13.4723H17.5H0ZM17.5 9.58344H35V11.5279H17.5V9.58344ZM17.5 5.69455H35V7.639H17.5V5.69455ZM0.124444 2.82066C0.14875 2.7215 0.182778 2.62719 0.213889 2.53191C0.180127 2.6269 0.150286 2.72323 0.124444 2.82066ZM17.5 3.75011H35C35 3.52358 34.9728 3.30386 34.9329 3.089C34.8989 2.89855 34.8491 2.71124 34.7842 2.529C34.6999 2.27798 34.5915 2.03574 34.4604 1.80566H17.5V3.75011Z"
            fill="#EEEEEE" />
        <path
            d="M17.5 -0.138672H3.88889C2.85749 -0.138672 1.86834 0.271049 1.13903 1.00036C0.409721 1.72967 0 2.71882 0 3.75022L0 13.4724H17.5V-0.138672Z"
            fill="#3C3B6E" />
        <path
            d="M1.94543 2.5115L2.54627 2.94803L2.31682 3.65289L2.91668 3.21733L3.51752 3.65289L3.28807 2.94803L3.88891 2.5115H3.14613L2.91668 1.80566L2.68821 2.5115H1.94543ZM3.88988 4.45594L4.49071 4.89247L4.26127 5.59733L4.86113 5.16177L5.46196 5.59733L5.23252 4.89247L5.83335 4.45594H5.09057L4.86113 3.75011L4.63266 4.45594H3.88988ZM7.77877 4.45594L8.3796 4.89247L8.15016 5.59733L8.75002 5.16177L9.35085 5.59733L9.12141 4.89247L9.72224 4.45594H8.97946L8.75002 3.75011L8.52155 4.45594H7.77877ZM11.6677 4.45594L12.2685 4.89247L12.039 5.59733L12.6389 5.16177L13.2397 5.59733L13.0103 4.89247L13.6111 4.45594H12.8684L12.6389 3.75011L12.4104 4.45594H11.6677ZM3.88988 8.34483L4.49071 8.78136L4.26127 9.48622L4.86113 9.05066L5.46196 9.48622L5.23252 8.78136L5.83335 8.34483H5.09057L4.86113 7.639L4.63266 8.34483H3.88988ZM7.77877 8.34483L8.3796 8.78136L8.15016 9.48622L8.75002 9.05066L9.35085 9.48622L9.12141 8.78136L9.72224 8.34483H8.97946L8.75002 7.639L8.52155 8.34483H7.77877ZM11.6677 8.34483L12.2685 8.78136L12.039 9.48622L12.6389 9.05066L13.2397 9.48622L13.0103 8.78136L13.6111 8.34483H12.8684L12.6389 7.639L12.4104 8.34483H11.6677ZM5.83432 2.5115L6.43516 2.94803L6.20571 3.65289L6.80557 3.21733L7.40641 3.65289L7.17696 2.94803L7.7778 2.5115H7.03502L6.80557 1.80566L6.5771 2.5115H5.83432ZM9.72321 2.5115L10.324 2.94803L10.0946 3.65289L10.6945 3.21733L11.2953 3.65289L11.0659 2.94803L11.6667 2.5115H10.9239L10.6945 1.80566L10.466 2.5115H9.72321ZM13.6121 2.5115L14.2129 2.94803L13.9835 3.65289L14.5834 3.21733L15.1842 3.65289L14.9547 2.94803L15.5556 2.5115H14.8128L14.5834 1.80566L14.3549 2.5115H13.6121ZM1.94543 6.40039L2.54627 6.83691L2.31682 7.54177L2.91668 7.10622L3.51752 7.54177L3.28807 6.83691L3.88891 6.40039H3.14613L2.91668 5.69455L2.68821 6.40039H1.94543ZM6.20571 7.54177L6.80557 7.10622L7.40641 7.54177L7.17696 6.83691L7.7778 6.40039H7.03502L6.80557 5.69455L6.5771 6.40039H5.83432L6.43516 6.83691L6.20571 7.54177ZM9.72321 6.40039L10.324 6.83691L10.0946 7.54177L10.6945 7.10622L11.2953 7.54177L11.0659 6.83691L11.6667 6.40039H10.9239L10.6945 5.69455L10.466 6.40039H9.72321ZM13.6121 6.40039L14.2129 6.83691L13.9835 7.54177L14.5834 7.10622L15.1842 7.54177L14.9547 6.83691L15.5556 6.40039H14.8128L14.5834 5.69455L14.3549 6.40039H13.6121ZM1.94543 10.2893L2.54627 10.7258L2.31682 11.4307L2.91668 10.9951L3.51752 11.4307L3.28807 10.7258L3.88891 10.2893H3.14613L2.91668 9.58344L2.68821 10.2893H1.94543ZM6.20571 11.4307L6.80557 10.9951L7.40641 11.4307L7.17696 10.7258L7.7778 10.2893H7.03502L6.80557 9.58344L6.5771 10.2893H5.83432L6.43516 10.7258L6.20571 11.4307ZM9.72321 10.2893L10.324 10.7258L10.0946 11.4307L10.6945 10.9951L11.2953 11.4307L11.0659 10.7258L11.6667 10.2893H10.9239L10.6945 9.58344L10.466 10.2893H9.72321ZM13.6121 10.2893L14.2129 10.7258L13.9835 11.4307L14.5834 10.9951L15.1842 11.4307L14.9547 10.7258L15.5556 10.2893H14.8128L14.5834 9.58344L14.3549 10.2893H13.6121Z"
            fill="white" />
    </g>
    <defs>
        <clipPath id="clip0_1679_78">
            <rect fill="white" height="25" width="35" />
        </clipPath>
    </defs>
</svg>
