<svg fill="none" height="38" viewBox="0 0 38 38" width="38" xmlns="http://www.w3.org/2000/svg">
    <path d="M26.25 6.5625H15V9.375H27.8906C27.4688 8.39063 26.9062 7.40625 26.25 6.5625Z"
        fill="#ED4C5C" />
    <path
        d="M28.7813 17.8125C28.9688 16.9219 29.0625 15.9844 29.0625 15H0.9375C0.9375 15.9844 1.03125 16.9219 1.21875 17.8125H28.7813Z"
        fill="#F9F9F9" />
    <path d="M15 0.9375V3.75H23.4375C21.0938 1.96875 18.1875 0.9375 15 0.9375Z" fill="#ED4C5C" />
    <path
        d="M15 6.5625H26.25C25.4531 5.48438 24.5156 4.54688 23.4375 3.75H15V6.5625ZM27.8906 9.375H15V12.1875H28.7813C28.5938 11.2031 28.2656 10.2656 27.8906 9.375Z"
        fill="#F9F9F9" />
    <path
        d="M15 12.1875V15H29.0625C29.0625 14.0156 28.9688 13.0781 28.7813 12.1875H15ZM2.10938 20.625H27.8906C28.2656 19.7344 28.5938 18.7969 28.7813 17.8125H1.21875C1.40625 18.7969 1.73438 19.7344 2.10938 20.625Z"
        fill="#ED4C5C" />
    <path
        d="M3.75 23.4375H26.25C26.9062 22.5938 27.4688 21.6094 27.8906 20.625H2.10938C2.53125 21.6094 3.09375 22.5938 3.75 23.4375Z"
        fill="#F9F9F9" />
    <path
        d="M3.75 23.4375C4.54688 24.5156 5.48438 25.4531 6.5625 26.25H23.4375C24.5156 25.4531 25.4531 24.5156 26.25 23.4375H3.75Z"
        fill="#ED4C5C" />
    <path
        d="M6.5625 26.25C8.90625 28.0312 11.8125 29.0625 15 29.0625C18.1875 29.0625 21.0938 28.0312 23.4375 26.25H6.5625Z"
        fill="#F9F9F9" />
    <path d="M15 0.9375C7.21875 0.9375 0.9375 7.21875 0.9375 15H15V0.9375Z" fill="#2A5F9E" />
    <path
        d="M9.375 10.4063L12 12.1875L11.0156 9.32812L13.5938 7.54688H10.3594L9.375 4.6875L8.39062 7.54688H5.15625L7.73438 9.32812L6.75 12.1875L9.375 10.4063Z"
        fill="white" />
</svg>
